<svg width="40" height="37" viewBox="0 0 40 37" fill="none" xmlns="http://www.w3.org/2000/svg">
<path d="M39.5 3.45292V3.45241C39.4992 2.68095 39.2143 1.93466 38.6977 1.37884C38.1799 0.821794 37.4698 0.500901 36.7206 0.5H36.72L3.28 0.5L3.2794 0.5C2.53024 0.500901 1.82009 0.821794 1.30232 1.37884C0.785681 1.93466 0.500801 2.68095 0.5 3.45241V3.45292V34.5233C0.499998 34.7414 0.551716 34.9575 0.652275 35.1515C0.752904 35.3457 0.90023 35.5133 1.08363 35.6352C1.26733 35.7574 1.48012 35.8288 1.70172 35.8395C1.92337 35.8503 2.1422 35.7996 2.33679 35.6949C2.3368 35.6949 2.3368 35.6949 2.33681 35.6949L7.84 32.7346L13.3431 35.6949C13.3431 35.6949 13.3432 35.6949 13.3432 35.6949C13.5204 35.7903 13.718 35.841 13.92 35.841C14.122 35.841 14.3196 35.7903 14.4968 35.6949C14.4968 35.6949 14.4969 35.6949 14.4969 35.6949L20 32.7346L25.5031 35.6949C25.5031 35.6949 25.5032 35.6949 25.5032 35.6949C25.6804 35.7903 25.878 35.841 26.08 35.841C26.282 35.841 26.4796 35.7903 26.6568 35.6949C26.6568 35.6949 26.6569 35.6949 26.6569 35.6949L32.16 32.7346L37.6632 35.6949C37.8578 35.7996 38.0766 35.8503 38.2983 35.8395C38.5199 35.8288 38.7327 35.7573 38.9164 35.6352C39.0998 35.5133 39.2471 35.3457 39.3477 35.1515C39.4483 34.9575 39.5 34.7414 39.5 34.5233V3.45292ZM31.14 13.2646V13.2646C31.14 12.9265 31.0155 12.5955 30.7836 12.3461C30.5506 12.0954 30.2265 11.947 29.88 11.947H10.12C9.77354 11.947 9.44937 12.0954 9.21637 12.3461C8.98452 12.5955 8.86 12.9265 8.86 13.2646C8.86 13.6028 8.98452 13.9338 9.21637 14.1832C9.44937 14.4339 9.77354 14.5823 10.12 14.5823H29.88C30.2265 14.5822 30.5506 14.4338 30.7836 14.1832C31.0155 13.9337 31.14 13.6028 31.14 13.2646ZM29.88 18.4881H10.12C9.77354 18.4881 9.44937 18.6365 9.21637 18.8872C8.98452 19.1366 8.86 19.4676 8.86 19.8058C8.86 20.1439 8.98452 20.4749 9.21637 20.7243C9.44937 20.975 9.77354 21.1234 10.12 21.1234H29.88C30.2265 21.1234 30.5506 20.975 30.7836 20.7243C31.0155 20.4749 31.14 20.1439 31.14 19.8058C31.14 19.4676 31.0155 19.1366 30.7836 18.8872C30.5506 18.6365 30.2265 18.4881 29.88 18.4881ZM36.8909 3.21543C36.9442 3.27275 36.9799 3.35777 36.98 3.45342V32.3636L32.7369 30.0812C32.7369 30.0811 32.7368 30.0811 32.7368 30.0811C32.5596 29.9858 32.362 29.935 32.16 29.935C31.958 29.935 31.7604 29.9858 31.5832 30.0811C31.5832 30.0811 31.5831 30.0811 31.5831 30.0812L26.08 33.0414L20.5768 30.0811C20.3996 29.9858 20.202 29.9351 20 29.9351C19.798 29.9351 19.6004 29.9858 19.4232 30.0811L13.92 33.0414L8.41691 30.0812C8.41687 30.0811 8.41683 30.0811 8.41679 30.0811C8.23964 29.9858 8.04202 29.935 7.84 29.935C7.63798 29.935 7.44036 29.9858 7.26321 30.0811C7.26317 30.0811 7.26313 30.0811 7.26309 30.0812L3.02 32.3636L3.02 3.45342C3.02 3.45336 3.02 3.45329 3.02 3.45323C3.02014 3.35765 3.05582 3.27271 3.10906 3.21543C3.16115 3.15939 3.22364 3.13539 3.28042 3.13528C3.28047 3.13528 3.28052 3.13528 3.28057 3.13528H36.7194C36.7195 3.13528 36.7195 3.13528 36.7196 3.13528C36.7764 3.13539 36.8388 3.15939 36.8909 3.21543Z" fill="white" stroke="white"/>
</svg>
