<svg width="44" height="43" viewBox="0 0 44 43" fill="none" xmlns="http://www.w3.org/2000/svg">
<path d="M22 0C17.6488 0 13.3953 1.23192 9.77746 3.53997C6.15958 5.84802 3.33979 9.12854 1.67466 12.9667C0.00953226 16.8048 -0.426141 21.0282 0.422734 25.1028C1.27161 29.1774 3.3669 32.9201 6.44366 35.8577C9.52041 38.7953 13.4404 40.7958 17.708 41.6063C21.9756 42.4167 26.3991 42.0008 30.419 40.411C34.439 38.8211 37.8749 36.1289 40.2923 32.6746C42.7097 29.2204 44 25.1593 44 21.0049C43.9934 15.436 41.6734 10.097 37.5491 6.15916C33.4247 2.22134 27.8327 0.00630305 22 0ZM22 38.7783C18.3182 38.7783 14.7191 37.7359 11.6579 35.783C8.59657 33.83 6.21059 31.0542 4.80164 27.8065C3.39268 24.5589 3.02404 20.9852 3.74231 17.5375C4.46059 14.0898 6.23354 10.9229 8.83694 8.43724C11.4404 5.95158 14.7573 4.25883 18.3683 3.57304C21.9794 2.88725 25.7223 3.23922 29.1238 4.58445C32.5253 5.92968 35.4326 8.20774 37.4781 11.1306C39.5236 14.0534 40.6154 17.4897 40.6154 21.0049C40.6098 25.7171 38.6468 30.2347 35.1569 33.5668C31.6671 36.8988 26.9354 38.773 22 38.7783ZM32.1538 21.0049C32.1538 21.4335 31.9755 21.8444 31.6582 22.1474C31.3408 22.4504 30.9104 22.6207 30.4615 22.6207H23.6923V29.0838C23.6923 29.5123 23.514 29.9233 23.1966 30.2263C22.8793 30.5293 22.4488 30.6995 22 30.6995C21.5512 30.6995 21.1207 30.5293 20.8034 30.2263C20.486 29.9233 20.3077 29.5123 20.3077 29.0838V22.6207H13.5385C13.0896 22.6207 12.6592 22.4505 12.3418 22.1475C12.0245 21.8444 11.8462 21.4335 11.8462 21.0049C11.8462 20.5764 12.0245 20.1654 12.3418 19.8624C12.6592 19.5594 13.0896 19.3892 13.5385 19.3892H20.3077V12.9261C20.3077 12.4976 20.486 12.0866 20.8034 11.7836C21.1207 11.4806 21.5512 11.3103 22 11.3103C22.4488 11.3103 22.8793 11.4806 23.1966 11.7836C23.514 12.0866 23.6923 12.4976 23.6923 12.9261V19.3892H30.4615C30.9104 19.3892 31.3408 19.5594 31.6582 19.8624C31.9755 20.1654 32.1538 20.5764 32.1538 21.0049Z" fill="white"/>
</svg>
